<?xml version="1.0" standalone="no"?>
<!DOCTYPE svg PUBLIC "-//W3C//DTD SVG 20010904//EN"
 "http://www.w3.org/TR/2001/REC-SVG-20010904/DTD/svg10.dtd">
<svg version="1.0" xmlns="http://www.w3.org/2000/svg"
 width="512.000000pt" height="512.000000pt" viewBox="0 0 512.000000 512.000000"
 preserveAspectRatio="xMidYMid meet">

<g transform="translate(0.000000,512.000000) scale(0.100000,-0.100000)"
fill="#000000" stroke="none">
<path d="M289 4337 c-144 -49 -237 -150 -275 -297 -72 -283 173 -555 463 -513
233 34 395 251 356 479 -44 258 -300 414 -544 331z"/>
<path d="M1556 4340 c-151 -48 -259 -174 -286 -334 -28 -158 46 -329 182 -416
117 -76 -4 -71 1768 -68 l1585 3 68 32 c41 20 88 53 120 85 224 224 131 605
-171 698 -63 20 -98 20 -1636 19 -1511 0 -1573 -1 -1630 -19z"/>
<path d="M289 2957 c-144 -49 -237 -150 -275 -297 -72 -283 173 -555 463 -513
233 34 395 251 356 479 -44 258 -300 414 -544 331z"/>
<path d="M1556 2960 c-151 -48 -259 -174 -286 -334 -28 -158 46 -329 182 -416
117 -76 -4 -71 1768 -68 l1585 3 68 32 c41 20 88 53 120 85 224 224 131 605
-171 698 -63 20 -98 20 -1636 19 -1511 0 -1573 -1 -1630 -19z"/>
<path d="M325 1587 c-216 -57 -354 -261 -318 -471 24 -143 104 -251 231 -313
73 -37 80 -38 182 -38 102 0 109 1 182 38 158 77 249 237 235 407 -18 213
-182 372 -397 386 -36 2 -87 -2 -115 -9z"/>
<path d="M1556 1580 c-151 -48 -259 -174 -286 -334 -28 -158 46 -329 182 -416
117 -76 -4 -71 1768 -68 l1585 3 68 32 c41 20 88 53 120 85 224 224 131 605
-171 698 -63 20 -98 20 -1636 19 -1511 0 -1573 -1 -1630 -19z"/>
</g>
</svg>
